
<svg width="24" height="24" viewBox="0 0 24 24" fill="none" xmlns="http://www.w3.org/2000/svg">
<path d="M20.4375 2.8125H16.9219V2.10938C16.9219 0.946266 15.9756 0 14.8125 0H9.1875C8.02439 0 7.07812 0.946266 7.07812 2.10938V2.8125H3.5625C2.39939 2.8125 1.45312 3.75877 1.45312 4.92188C1.45312 5.856 2.06367 6.64973 2.90648 6.9263L4.16062 22.0658C4.25095 23.1504 5.1743 24 6.26269 24H17.7373C18.8258 24 19.7491 23.1504 19.8395 22.0654L21.0935 6.92625C21.9363 6.64973 22.5469 5.856 22.5469 4.92188C22.5469 3.75877 21.6006 2.8125 20.4375 2.8125ZM8.48438 2.10938C8.48438 1.72167 8.7998 1.40625 9.1875 1.40625H14.8125C15.2002 1.40625 15.5156 1.72167 15.5156 2.10938V2.8125H8.48438V2.10938ZM18.438 21.949C18.4079 22.3105 18.1001 22.5938 17.7373 22.5938H6.26269C5.89992 22.5938 5.59214 22.3105 5.56209 21.9494L4.32628 7.03125H19.6737L18.438 21.949ZM20.4375 5.625H3.5625C3.1748 5.625 2.85938 5.30958 2.85938 4.92188C2.85938 4.53417 3.1748 4.21875 3.5625 4.21875H20.4375C20.8252 4.21875 21.1406 4.53417 21.1406 4.92188C21.1406 5.30958 20.8252 5.625 20.4375 5.625Z" fill="white"/>
<path d="M9.18613 20.4408L8.48301 9.09707C8.45896 8.70946 8.12348 8.41467 7.73774 8.43881C7.35014 8.46285 7.05543 8.79651 7.07943 9.18407L7.78256 20.5279C7.80567 20.9007 8.11523 21.1875 8.48367 21.1875C8.89087 21.1875 9.21112 20.8446 9.18613 20.4408Z" fill="white"/>
<path d="M16.2622 8.43886C15.8755 8.41481 15.5409 8.70951 15.5169 9.09712L14.8138 20.4409C14.7898 20.8284 15.0846 21.1621 15.4721 21.1861C15.8599 21.2101 16.1934 20.9153 16.2174 20.5279L16.9205 9.18412C16.9445 8.79651 16.6498 8.46286 16.2622 8.43886Z" fill="white"/>
<path d="M12.1074 8.32971C11.719 8.32971 11.4042 8.64452 11.4042 9.03284V20.3766C11.4042 20.7649 11.719 21.0797 12.1074 21.0797C12.4957 21.0797 12.8105 20.7649 12.8105 20.3766V9.03284C12.8105 8.64452 12.4957 8.32971 12.1074 8.32971Z" fill="white"/>
</svg>
